<?xml version="1.0" encoding="UTF-8" standalone="no"?>
<!-- Created with Inkscape (http://www.inkscape.org/) -->

<svg
   width="210mm"
   height="297mm"
   viewBox="0 0 210 297"
   version="1.1"
   id="svg5"
   xml:space="preserve"
   inkscape:version="1.2.2 (b0a8486541, 2022-12-01)"
   sodipodi:docname="favicon.svg"
   xmlns:inkscape="http://www.inkscape.org/namespaces/inkscape"
   xmlns:sodipodi="http://sodipodi.sourceforge.net/DTD/sodipodi-0.dtd"
   xmlns="http://www.w3.org/2000/svg"
   xmlns:svg="http://www.w3.org/2000/svg"><sodipodi:namedview
     id="namedview7"
     pagecolor="#ffffff"
     bordercolor="#000000"
     borderopacity="0.25"
     inkscape:showpageshadow="2"
     inkscape:pageopacity="0.0"
     inkscape:pagecheckerboard="0"
     inkscape:deskcolor="#d1d1d1"
     inkscape:document-units="mm"
     showgrid="false"
     inkscape:zoom="2.114039"
     inkscape:cx="289.02022"
     inkscape:cy="573.78318"
     inkscape:window-width="1920"
     inkscape:window-height="1011"
     inkscape:window-x="0"
     inkscape:window-y="32"
     inkscape:window-maximized="1"
     inkscape:current-layer="layer1" /><defs
     id="defs2"><clipPath
       id="a"><path
         d="M0 .113h91.887V92H0Zm0 0"
         id="path108" /></clipPath></defs><g
     inkscape:label="Camada 1"
     inkscape:groupmode="layer"
     id="layer1"><rect
       style="fill:#808080;fill-opacity:1;stroke:none;stroke-width:0.345955;stop-color:#000000;font-variation-settings:normal;opacity:1;vector-effect:none;stroke-linecap:butt;stroke-linejoin:miter;stroke-miterlimit:4;stroke-dasharray:none;stroke-dashoffset:0;stroke-opacity:1;-inkscape-stroke:none;stop-opacity:1"
       id="rect1073"
       width="12.7"
       height="12.7"
       x="45.080208"
       y="113.48397"
       rx="2"
       inkscape:export-filename="favicon.png"
       inkscape:export-xdpi="1024"
       inkscape:export-ydpi="1024" /><g
       id="g1019"
       transform="matrix(0.86031603,0,0,0.86031603,-31.425931,0.5598926)"><path
         style="fill:#100f0d;fill-opacity:1;fill-rule:nonzero;stroke:none;stroke-width:0.123297"
         d="m 100.04394,137.27507 -4.946679,-4.9463 a 0.72905532,0.72905532 0 0 0 -1.031748,0 l -1.027313,1.02731 1.302756,1.30275 a 0.86677811,0.86677811 0 0 1 0.891437,0.20764 0.86838097,0.86838097 0 0 1 0.206276,0.89723 l 1.255535,1.25566 a 0.86628492,0.86628492 0 0 1 0.897354,0.20615 0.86801109,0.86801109 0 0 1 0,1.22767 0.86862754,0.86862754 0 0 1 -1.228159,0 0.86776448,0.86776448 0 0 1 -0.188892,-0.94446 l -1.171322,-1.17095 v 3.08205 a 0.86801109,0.86801109 0 0 1 0.229333,1.39203 0.86801109,0.86801109 0 0 1 -1.227669,0 0.86801109,0.86801109 0 0 1 0,-1.22779 0.86727129,0.86727129 0 0 1 0.284569,-0.18976 v -3.11041 a 0.86320248,0.86320248 0 0 1 -0.284569,-0.18926 0.86912076,0.86912076 0 0 1 -0.186918,-0.94939 l -1.284508,-1.28451 -3.391655,3.39116 a 0.72967181,0.72967181 0 0 0 0,1.03212 l 4.946801,4.94693 a 0.72991839,0.72991839 0 0 0 1.031748,0 l 4.923623,-4.92375 a 0.73053487,0.73053487 0 0 0 0,-1.03212"
         id="path113"
         clip-path="url(#clipPath128)" /><path
         d="m 96.432684,134.37422 c -0.837809,0.072 -1.597069,0.38908 -2.218154,0.9258 -0.09891,0.0851 -0.306179,0.29236 -0.389815,0.38982 -0.575992,0.66908 -0.901806,1.49598 -0.932353,2.36651 -0.03491,0.98617 0.288725,1.91053 0.932353,2.65888 0.08437,0.0982 0.291636,0.30545 0.389815,0.38981 0.635628,0.54618 1.388345,0.8589 2.2327,0.92654 0.125818,0.0102 0.433451,0.0102 0.559992,0 0.680721,-0.0538 1.324348,-0.27927 1.87634,-0.65745 l 0.09091,-0.0625 0.405812,0.40508 0.405816,0.40581 -0.0058,0.0691 c -0.02401,0.28872 0.04436,0.5389 0.207996,0.75999 0.01748,0.024 0.459634,0.47199 0.981804,0.9949 0.97817,0.98035 1.01817,1.01817 1.14326,1.08725 0.11127,0.0611 0.25745,0.10836 0.38836,0.12582 0.0815,0.0102 0.24727,0.005 0.32945,-0.0116 0.34182,-0.0669 0.63563,-0.30327 0.77235,-0.62036 0.0342,-0.08 0.0691,-0.20654 0.0807,-0.29599 0.0124,-0.0967 0.004,-0.25818 -0.0182,-0.35273 -0.0393,-0.16509 -0.0887,-0.27563 -0.18473,-0.40727 -0.0255,-0.0356 -0.37163,-0.38763 -0.98617,-1.00216 -1.00944,-1.01163 -1.02035,-1.02181 -1.16799,-1.0989 -0.0865,-0.0451 -0.21745,-0.0894 -0.31635,-0.10618 -0.0793,-0.0138 -0.25528,-0.0167 -0.32146,-0.005 l -0.0371,0.007 -0.40799,-0.408 -0.407269,-0.40799 0.07272,-0.10836 c 0.374539,-0.55782 0.597079,-1.19635 0.646539,-1.85889 0.01,-0.12873 0.01,-0.43272 0,-0.55854 -0.0727,-0.93672 -0.45818,-1.77671 -1.116352,-2.43415 -0.570176,-0.57091 -1.263986,-0.93018 -2.069067,-1.07199 -0.202181,-0.0364 -0.325814,-0.0458 -0.599992,-0.048 -0.143996,-0.001 -0.295998,7e-4 -0.33818,0.004 z m 0.618173,1.22398 c 0.359996,0.0487 0.666902,0.14982 0.964353,0.31782 0.706899,0.39999 1.190531,1.10398 1.307618,1.9047 0.03564,0.24145 0.03564,0.52218 0,0.76363 -0.107633,0.7389 -0.522899,1.39198 -1.148345,1.80652 -0.335999,0.22327 -0.702541,0.35999 -1.112714,0.41527 -0.188362,0.0254 -0.511268,0.0225 -0.714902,-0.008 -0.597812,-0.0873 -1.150534,-0.37964 -1.55198,-0.82036 -0.373814,-0.41018 -0.598538,-0.89453 -0.67272,-1.44798 -0.01601,-0.12 -0.01817,-0.50472 -0.0036,-0.62181 0.05382,-0.43272 0.190542,-0.80726 0.422543,-1.15635 0.364356,-0.54908 0.922894,-0.94108 1.564341,-1.09817 0.134544,-0.0328 0.23927,-0.0495 0.432723,-0.0684 0.07054,-0.007 0.433447,0.002 0.512718,0.0131 z"
         id="path219"
         style="fill:#ff6600;fill-opacity:0.57768;stroke:none;stroke-width:0.000727261" /></g></g></svg>
